# Blender v2.83.0 OBJ File: 'coin.blend'
# www.blender.org
mtllib coin.mtl
o Cylinder_Cylinder.001
v 0.000000 1.000000 -0.200000
v 0.000000 1.000000 0.200000
v 0.195090 0.980785 -0.200000
v 0.195090 0.980785 0.200000
v 0.382683 0.923880 -0.200000
v 0.382683 0.923880 0.200000
v 0.555570 0.831470 -0.200000
v 0.555570 0.831470 0.200000
v 0.707107 0.707107 -0.200000
v 0.707107 0.707107 0.200000
v 0.831470 0.555570 -0.200000
v 0.831470 0.555570 0.200000
v 0.923880 0.382683 -0.200000
v 0.923880 0.382683 0.200000
v 0.980785 0.195090 -0.200000
v 0.980785 0.195090 0.200000
v 1.000000 0.000000 -0.200000
v 1.000000 0.000000 0.200000
v 0.980785 -0.195090 -0.200000
v 0.980785 -0.195090 0.200000
v 0.923880 -0.382683 -0.200000
v 0.923880 -0.382683 0.200000
v 0.831470 -0.555570 -0.200000
v 0.831470 -0.555570 0.200000
v 0.707107 -0.707107 -0.200000
v 0.707107 -0.707107 0.200000
v 0.555570 -0.831470 -0.200000
v 0.555570 -0.831470 0.200000
v 0.382683 -0.923880 -0.200000
v 0.382683 -0.923880 0.200000
v 0.195090 -0.980785 -0.200000
v 0.195090 -0.980785 0.200000
v -0.000000 -1.000000 -0.200000
v -0.000000 -1.000000 0.200000
v -0.195091 -0.980785 -0.200000
v -0.195091 -0.980785 0.200000
v -0.382684 -0.923879 -0.200000
v -0.382684 -0.923879 0.200000
v -0.555571 -0.831469 -0.200000
v -0.555571 -0.831469 0.200000
v -0.707107 -0.707106 -0.200000
v -0.707107 -0.707106 0.200000
v -0.831470 -0.555570 -0.200000
v -0.831470 -0.555570 0.200000
v -0.923880 -0.382683 -0.200000
v -0.923880 -0.382683 0.200000
v -0.980785 -0.195089 -0.200000
v -0.980785 -0.195089 0.200000
v -1.000000 0.000001 -0.200000
v -1.000000 0.000001 0.200000
v -0.980785 0.195091 -0.200000
v -0.980785 0.195091 0.200000
v -0.923879 0.382684 -0.200000
v -0.923879 0.382684 0.200000
v -0.831469 0.555571 -0.200000
v -0.831469 0.555571 0.200000
v -0.707106 0.707108 -0.200000
v -0.707106 0.707108 0.200000
v -0.555569 0.831470 -0.200000
v -0.555569 0.831470 0.200000
v -0.382682 0.923880 -0.200000
v -0.382682 0.923880 0.200000
v -0.195089 0.980786 -0.200000
v -0.195089 0.980786 0.200000
v 0.000000 0.272134 -0.062862
v 0.000000 0.272134 0.062862
v 0.053088 0.266896 -0.062862
v 0.053088 0.266896 0.062862
v 0.104141 0.251404 -0.062862
v 0.104141 0.251404 0.062862
v 0.151200 0.226257 -0.062862
v 0.151200 0.226257 0.062862
v 0.192443 0.192443 -0.062862
v 0.192443 0.192443 0.062862
v 0.226257 0.151200 -0.062862
v 0.226257 0.151200 0.062862
v 0.251404 0.104141 -0.062862
v 0.251404 0.104141 0.062862
v 0.266896 0.053088 -0.062862
v 0.266896 0.053088 0.062862
v 0.272134 0.000000 -0.062862
v 0.272134 0.000000 0.062862
v 0.266896 -0.053088 -0.062862
v 0.266896 -0.053088 0.062862
v 0.251404 -0.104141 -0.062862
v 0.251404 -0.104141 0.062862
v 0.226257 -0.151200 -0.062862
v 0.226257 -0.151200 0.062862
v 0.192443 -0.192443 -0.062862
v 0.192443 -0.192443 0.062862
v 0.151200 -0.226257 -0.062862
v 0.151200 -0.226257 0.062862
v 0.104141 -0.251404 -0.062862
v 0.104141 -0.251404 0.062862
v 0.053087 -0.266896 -0.062862
v 0.053087 -0.266896 0.062862
v -0.000000 -0.272134 -0.062862
v -0.000000 -0.272134 0.062862
v -0.053088 -0.266896 -0.062862
v -0.053088 -0.266896 0.062862
v -0.104141 -0.251404 -0.062862
v -0.104141 -0.251404 0.062862
v -0.151200 -0.226257 -0.062862
v -0.151200 -0.226257 0.062862
v -0.192443 -0.192442 -0.062862
v -0.192443 -0.192442 0.062862
v -0.226257 -0.151199 -0.062862
v -0.226257 -0.151199 0.062862
v -0.251405 -0.104140 -0.062862
v -0.251405 -0.104140 0.062862
v -0.266896 -0.053087 -0.062862
v -0.266896 -0.053087 0.062862
v -0.272134 0.000001 -0.062862
v -0.272134 0.000001 0.062862
v -0.266896 0.053089 -0.062862
v -0.266896 0.053089 0.062862
v -0.251404 0.104142 -0.062862
v -0.251404 0.104142 0.062862
v -0.226256 0.151201 -0.062862
v -0.226256 0.151201 0.062862
v -0.192442 0.192413 -0.062862
v -0.192442 0.192413 0.062862
v -0.151199 0.226258 -0.062862
v -0.151199 0.226258 0.062862
v -0.104140 0.251405 -0.062862
v -0.104140 0.251405 0.062862
v -0.053086 0.266897 -0.062862
v -0.053086 0.266897 0.062862
vt 1.000000 1.000000
vt 0.968750 0.500000
vt 1.000000 0.500000
vt 0.968750 1.000000
vt 0.937500 0.500000
vt 0.937500 1.000000
vt 0.906250 0.500000
vt 0.906250 1.000000
vt 0.875000 0.500000
vt 0.875000 1.000000
vt 0.843750 0.500000
vt 0.843750 1.000000
vt 0.812500 0.500000
vt 0.812500 1.000000
vt 0.781250 0.500000
vt 0.781250 1.000000
vt 0.750000 0.500000
vt 0.750000 1.000000
vt 0.718750 0.500000
vt 0.718750 1.000000
vt 0.687500 0.500000
vt 0.687500 1.000000
vt 0.656250 0.500000
vt 0.656250 1.000000
vt 0.625000 0.500000
vt 0.625000 1.000000
vt 0.593750 0.500000
vt 0.593750 1.000000
vt 0.562500 0.500000
vt 0.562500 1.000000
vt 0.531250 0.500000
vt 0.531250 1.000000
vt 0.500000 0.500000
vt 0.500000 1.000000
vt 0.468750 0.500000
vt 0.468750 1.000000
vt 0.437500 0.500000
vt 0.437500 1.000000
vt 0.406250 0.500000
vt 0.406250 1.000000
vt 0.375000 0.500000
vt 0.375000 1.000000
vt 0.343750 0.500000
vt 0.343750 1.000000
vt 0.312500 0.500000
vt 0.312500 1.000000
vt 0.281250 0.500000
vt 0.281250 1.000000
vt 0.250000 0.500000
vt 0.250000 1.000000
vt 0.218750 0.500000
vt 0.218750 1.000000
vt 0.187500 0.500000
vt 0.187500 1.000000
vt 0.156250 0.500000
vt 0.156250 1.000000
vt 0.125000 0.500000
vt 0.125000 1.000000
vt 0.093750 0.500000
vt 0.093750 1.000000
vt 0.062500 0.500000
vt 0.028269 0.341844
vt 0.158156 0.028269
vt 0.471731 0.158156
vt 0.062500 1.000000
vt 0.031250 0.500000
vt 0.031250 1.000000
vt 0.000000 0.500000
vt 0.985388 0.296822
vt 0.796822 0.014612
vt 0.514611 0.203179
vt 0.968750 0.500000
vt 1.000000 1.000000
vt 1.000000 0.500000
vt 0.937500 0.500000
vt 0.968750 1.000000
vt 0.906250 0.500000
vt 0.937500 1.000000
vt 0.875000 0.500000
vt 0.906250 1.000000
vt 0.843750 0.500000
vt 0.875000 1.000000
vt 0.812500 0.500000
vt 0.843750 1.000000
vt 0.781250 0.500000
vt 0.812500 1.000000
vt 0.750000 0.500000
vt 0.781250 1.000000
vt 0.718750 0.500000
vt 0.750000 1.000000
vt 0.687500 0.500000
vt 0.718750 1.000000
vt 0.656250 0.500000
vt 0.687500 1.000000
vt 0.625000 0.500000
vt 0.656250 1.000000
vt 0.593750 0.500000
vt 0.625000 1.000000
vt 0.562500 0.500000
vt 0.593750 1.000000
vt 0.531250 0.500000
vt 0.562500 1.000000
vt 0.500000 0.500000
vt 0.531250 1.000000
vt 0.468750 0.500000
vt 0.500000 1.000000
vt 0.437500 0.500000
vt 0.468750 1.000000
vt 0.406250 0.500000
vt 0.437500 1.000000
vt 0.375000 0.500000
vt 0.406250 1.000000
vt 0.343750 0.500000
vt 0.375000 1.000000
vt 0.312500 0.500000
vt 0.343750 1.000000
vt 0.281250 0.500000
vt 0.312500 1.000000
vt 0.250000 0.500000
vt 0.281250 1.000000
vt 0.218750 0.500000
vt 0.250000 1.000000
vt 0.187500 0.500000
vt 0.218750 1.000000
vt 0.156250 0.500000
vt 0.187500 1.000000
vt 0.125000 0.500000
vt 0.156250 1.000000
vt 0.093750 0.500000
vt 0.125000 1.000000
vt 0.062500 0.500000
vt 0.093750 1.000000
vt 0.028269 0.341844
vt 0.158156 0.471731
vt 0.471731 0.158156
vt 0.031250 0.500000
vt 0.062500 1.000000
vt 0.000000 0.500000
vt 0.031250 1.000000
vt 0.971731 0.341844
vt 0.841844 0.471731
vt 0.528269 0.158156
vt 0.341844 0.471731
vt 0.296822 0.485388
vt 0.250000 0.490000
vt 0.203179 0.485389
vt 0.158156 0.471731
vt 0.116663 0.449553
vt 0.080295 0.419706
vt 0.050447 0.383337
vt 0.014612 0.296822
vt 0.010000 0.250000
vt 0.014611 0.203179
vt 0.028269 0.158156
vt 0.050447 0.116663
vt 0.080294 0.080294
vt 0.116663 0.050447
vt 0.203178 0.014612
vt 0.250000 0.010000
vt 0.296822 0.014612
vt 0.341844 0.028269
vt 0.383337 0.050447
vt 0.419706 0.080294
vt 0.449553 0.116663
vt 0.485388 0.203178
vt 0.490000 0.250000
vt 0.485388 0.296822
vt 0.471731 0.341844
vt 0.449553 0.383337
vt 0.419706 0.419706
vt 0.383337 0.449553
vt 0.000000 1.000000
vt 0.703179 0.485389
vt 0.750000 0.490000
vt 0.796822 0.485388
vt 0.841844 0.471731
vt 0.883337 0.449553
vt 0.919706 0.419706
vt 0.949553 0.383337
vt 0.971731 0.341844
vt 0.990000 0.250000
vt 0.985388 0.203178
vt 0.971731 0.158156
vt 0.949553 0.116663
vt 0.919706 0.080294
vt 0.883337 0.050447
vt 0.841844 0.028269
vt 0.750000 0.010000
vt 0.703178 0.014612
vt 0.658156 0.028269
vt 0.616663 0.050447
vt 0.580294 0.080294
vt 0.550447 0.116663
vt 0.528269 0.158156
vt 0.510000 0.250000
vt 0.514612 0.296822
vt 0.528269 0.341844
vt 0.550447 0.383337
vt 0.580295 0.419706
vt 0.616663 0.449553
vt 0.658156 0.471731
vt 0.250000 0.490000
vt 0.296822 0.485388
vt 0.203179 0.485389
vt 0.341844 0.471731
vt 0.383337 0.449553
vt 0.471731 0.341844
vt 0.419706 0.419706
vt 0.449553 0.383337
vt 0.485388 0.296822
vt 0.490000 0.250000
vt 0.485388 0.203178
vt 0.449553 0.116663
vt 0.383337 0.050447
vt 0.419706 0.080294
vt 0.341844 0.028269
vt 0.296822 0.014612
vt 0.158156 0.028269
vt 0.250000 0.010000
vt 0.203178 0.014612
vt 0.116663 0.050447
vt 0.050447 0.116663
vt 0.080294 0.080294
vt 0.028269 0.158156
vt 0.014611 0.203179
vt 0.010000 0.250000
vt 0.014612 0.296822
vt 0.050447 0.383337
vt 0.080295 0.419706
vt 0.116663 0.449553
vt 0.000000 1.000000
vt 0.796822 0.485388
vt 0.750000 0.490000
vt 0.703179 0.485389
vt 0.658156 0.471731
vt 0.616663 0.449553
vt 0.528269 0.341844
vt 0.580295 0.419706
vt 0.550447 0.383337
vt 0.514612 0.296822
vt 0.510000 0.250000
vt 0.514611 0.203179
vt 0.550447 0.116663
vt 0.658156 0.028269
vt 0.580294 0.080294
vt 0.616663 0.050447
vt 0.703178 0.014612
vt 0.841844 0.028269
vt 0.750000 0.010000
vt 0.796822 0.014612
vt 0.883337 0.050447
vt 0.971731 0.158156
vt 0.919706 0.080294
vt 0.949553 0.116663
vt 0.985388 0.203178
vt 0.990000 0.250000
vt 0.985388 0.296822
vt 0.949553 0.383337
vt 0.919706 0.419706
vt 0.883337 0.449553
vn 0.0980 0.9952 0.0000
vn 0.2903 0.9569 0.0000
vn 0.4714 0.8819 0.0000
vn 0.6344 0.7730 0.0000
vn 0.7730 0.6344 0.0000
vn 0.8819 0.4714 0.0000
vn 0.9569 0.2903 0.0000
vn 0.9952 0.0980 0.0000
vn 0.9952 -0.0980 -0.0000
vn 0.9569 -0.2903 -0.0000
vn 0.8819 -0.4714 0.0000
vn 0.7730 -0.6344 0.0000
vn 0.6344 -0.7730 0.0000
vn 0.4714 -0.8819 0.0000
vn 0.2903 -0.9569 0.0000
vn 0.0980 -0.9952 0.0000
vn -0.0980 -0.9952 0.0000
vn -0.2903 -0.9569 0.0000
vn -0.4714 -0.8819 0.0000
vn -0.6344 -0.7730 0.0000
vn -0.7730 -0.6344 0.0000
vn -0.8819 -0.4714 0.0000
vn -0.9569 -0.2903 0.0000
vn -0.9952 -0.0980 -0.0000
vn -0.9952 0.0980 0.0000
vn -0.9569 0.2903 0.0000
vn -0.8819 0.4714 0.0000
vn -0.7730 0.6344 0.0000
vn -0.6344 0.7730 0.0000
vn -0.4714 0.8819 0.0000
vn 0.0000 -0.0000 1.0000
vn -0.2903 0.9569 0.0000
vn -0.0980 0.9952 0.0000
vn 0.0000 0.0000 -1.0000
vn -0.0982 -0.9952 0.0000
vn -0.2904 -0.9569 0.0000
vn -0.4713 -0.8820 0.0000
vn -0.6340 -0.7733 0.0000
vn -0.7733 -0.6340 0.0000
vn -0.8820 -0.4713 0.0000
vn -0.9569 -0.2904 0.0000
vn -0.9952 -0.0982 -0.0000
vn -0.9952 0.0982 0.0000
vn -0.9569 0.2904 0.0000
vn -0.8820 0.4713 0.0000
vn -0.7733 0.6340 0.0000
vn -0.6340 0.7733 0.0000
vn -0.4713 0.8820 0.0000
vn -0.2904 0.9569 0.0000
vn -0.0982 0.9952 0.0000
vn 0.0982 0.9952 0.0000
vn 0.2904 0.9569 0.0000
vn 0.4713 0.8820 0.0000
vn 0.6340 0.7733 0.0000
vn 0.7733 0.6340 0.0000
vn 0.8820 0.4713 0.0000
vn 0.9569 0.2904 0.0000
vn 0.9952 0.0982 0.0000
vn 0.9952 -0.0982 -0.0000
vn 0.9569 -0.2904 0.0000
vn 0.8820 -0.4713 0.0000
vn 0.7731 -0.6343 0.0000
vn 0.4713 -0.8820 0.0000
vn 0.2904 -0.9569 0.0000
vn 0.0982 -0.9952 0.0000
usemtl None
s off
f 2/1/1 3/2/1 1/3/1
f 4/4/2 5/5/2 3/2/2
f 6/6/3 7/7/3 5/5/3
f 8/8/4 9/9/4 7/7/4
f 10/10/5 11/11/5 9/9/5
f 12/12/6 13/13/6 11/11/6
f 14/14/7 15/15/7 13/13/7
f 16/16/8 17/17/8 15/15/8
f 18/18/9 19/19/9 17/17/9
f 20/20/10 21/21/10 19/19/10
f 22/22/11 23/23/11 21/21/11
f 24/24/12 25/25/12 23/23/12
f 26/26/13 27/27/13 25/25/13
f 28/28/14 29/29/14 27/27/14
f 30/30/15 31/31/15 29/29/15
f 32/32/16 33/33/16 31/31/16
f 34/34/17 35/35/17 33/33/17
f 36/36/18 37/37/18 35/35/18
f 38/38/19 39/39/19 37/37/19
f 40/40/20 41/41/20 39/39/20
f 42/42/21 43/43/21 41/41/21
f 44/44/22 45/45/22 43/43/22
f 46/46/23 47/47/23 45/45/23
f 48/48/24 49/49/24 47/47/24
f 50/50/25 51/51/25 49/49/25
f 52/52/26 53/53/26 51/51/26
f 54/54/27 55/55/27 53/53/27
f 56/56/28 57/57/28 55/55/28
f 58/58/29 59/59/29 57/57/29
f 60/60/30 61/61/30 59/59/30
f 54/62/31 38/63/31 22/64/31
f 62/65/32 63/66/32 61/61/32
f 64/67/33 1/68/33 63/66/33
f 15/69/34 31/70/34 47/71/34
f 67/72/35 66/73/35 65/74/35
f 69/75/36 68/76/36 67/72/36
f 71/77/37 70/78/37 69/75/37
f 73/79/38 72/80/38 71/77/38
f 75/81/39 74/82/39 73/79/39
f 77/83/40 76/84/40 75/81/40
f 79/85/41 78/86/41 77/83/41
f 81/87/42 80/88/42 79/85/42
f 83/89/43 82/90/43 81/87/43
f 85/91/44 84/92/44 83/89/44
f 87/93/45 86/94/45 85/91/45
f 89/95/46 88/96/46 87/93/46
f 91/97/47 90/98/47 89/95/47
f 93/99/48 92/100/48 91/97/48
f 95/101/49 94/102/49 93/99/49
f 97/103/50 96/104/50 95/101/50
f 99/105/51 98/106/51 97/103/51
f 101/107/52 100/108/52 99/105/52
f 103/109/53 102/110/53 101/107/53
f 105/111/54 104/112/54 103/109/54
f 107/113/55 106/114/55 105/111/55
f 109/115/56 108/116/56 107/113/56
f 111/117/57 110/118/57 109/115/57
f 113/119/58 112/120/58 111/117/58
f 115/121/59 114/122/59 113/119/59
f 117/123/60 116/124/60 115/121/60
f 119/125/61 118/126/61 117/123/61
f 121/127/62 120/128/62 119/125/62
f 123/129/13 122/130/13 121/127/13
f 125/131/63 124/132/63 123/129/63
f 118/133/34 126/134/34 86/135/34
f 127/136/64 126/137/64 125/131/64
f 65/138/65 128/139/65 127/136/65
f 77/140/31 69/141/31 109/142/31
f 2/1/1 4/4/1 3/2/1
f 4/4/2 6/6/2 5/5/2
f 6/6/3 8/8/3 7/7/3
f 8/8/4 10/10/4 9/9/4
f 10/10/5 12/12/5 11/11/5
f 12/12/6 14/14/6 13/13/6
f 14/14/7 16/16/7 15/15/7
f 16/16/8 18/18/8 17/17/8
f 18/18/9 20/20/9 19/19/9
f 20/20/10 22/22/10 21/21/10
f 22/22/11 24/24/11 23/23/11
f 24/24/12 26/26/12 25/25/12
f 26/26/13 28/28/13 27/27/13
f 28/28/14 30/30/14 29/29/14
f 30/30/15 32/32/15 31/31/15
f 32/32/16 34/34/16 33/33/16
f 34/34/17 36/36/17 35/35/17
f 36/36/18 38/38/18 37/37/18
f 38/38/19 40/40/19 39/39/19
f 40/40/20 42/42/20 41/41/20
f 42/42/21 44/44/21 43/43/21
f 44/44/22 46/46/22 45/45/22
f 46/46/23 48/48/23 47/47/23
f 48/48/24 50/50/24 49/49/24
f 50/50/25 52/52/25 51/51/25
f 52/52/26 54/54/26 53/53/26
f 54/54/27 56/56/27 55/55/27
f 56/56/28 58/58/28 57/57/28
f 58/58/29 60/60/29 59/59/29
f 60/60/30 62/65/30 61/61/30
f 6/143/31 4/144/31 2/145/31
f 2/145/31 64/146/31 6/143/31
f 64/146/31 62/147/31 6/143/31
f 62/147/31 60/148/31 58/149/31
f 58/149/31 56/150/31 54/62/31
f 54/62/31 52/151/31 50/152/31
f 50/152/31 48/153/31 54/62/31
f 48/153/31 46/154/31 54/62/31
f 46/154/31 44/155/31 38/63/31
f 44/155/31 42/156/31 38/63/31
f 42/156/31 40/157/31 38/63/31
f 38/63/31 36/158/31 34/159/31
f 34/159/31 32/160/31 30/161/31
f 30/161/31 28/162/31 26/163/31
f 26/163/31 24/164/31 22/64/31
f 22/64/31 20/165/31 18/166/31
f 18/166/31 16/167/31 22/64/31
f 16/167/31 14/168/31 22/64/31
f 14/168/31 12/169/31 10/170/31
f 10/170/31 8/171/31 6/143/31
f 62/147/31 58/149/31 6/143/31
f 58/149/31 54/62/31 6/143/31
f 38/63/31 34/159/31 22/64/31
f 34/159/31 30/161/31 22/64/31
f 30/161/31 26/163/31 22/64/31
f 14/168/31 10/170/31 22/64/31
f 10/170/31 6/143/31 22/64/31
f 54/62/31 46/154/31 38/63/31
f 6/143/31 54/62/31 22/64/31
f 62/65/32 64/67/32 63/66/32
f 64/67/33 2/172/33 1/68/33
f 63/173/34 1/174/34 3/175/34
f 3/175/34 5/176/34 7/177/34
f 7/177/34 9/178/34 11/179/34
f 11/179/34 13/180/34 7/177/34
f 13/180/34 15/69/34 7/177/34
f 15/69/34 17/181/34 19/182/34
f 19/182/34 21/183/34 15/69/34
f 21/183/34 23/184/34 15/69/34
f 23/184/34 25/185/34 31/70/34
f 25/185/34 27/186/34 31/70/34
f 27/186/34 29/187/34 31/70/34
f 31/70/34 33/188/34 35/189/34
f 35/189/34 37/190/34 39/191/34
f 39/191/34 41/192/34 43/193/34
f 43/193/34 45/194/34 47/71/34
f 47/71/34 49/195/34 51/196/34
f 51/196/34 53/197/34 55/198/34
f 55/198/34 57/199/34 63/173/34
f 57/199/34 59/200/34 63/173/34
f 59/200/34 61/201/34 63/173/34
f 63/173/34 3/175/34 7/177/34
f 31/70/34 35/189/34 47/71/34
f 35/189/34 39/191/34 47/71/34
f 39/191/34 43/193/34 47/71/34
f 47/71/34 51/196/34 63/173/34
f 51/196/34 55/198/34 63/173/34
f 63/173/34 7/177/34 15/69/34
f 15/69/34 23/184/34 31/70/34
f 63/173/34 15/69/34 47/71/34
f 67/72/35 68/76/35 66/73/35
f 69/75/36 70/78/36 68/76/36
f 71/77/37 72/80/37 70/78/37
f 73/79/38 74/82/38 72/80/38
f 75/81/39 76/84/39 74/82/39
f 77/83/40 78/86/40 76/84/40
f 79/85/41 80/88/41 78/86/41
f 81/87/42 82/90/42 80/88/42
f 83/89/43 84/92/43 82/90/43
f 85/91/44 86/94/44 84/92/44
f 87/93/45 88/96/45 86/94/45
f 89/95/46 90/98/46 88/96/46
f 91/97/47 92/100/47 90/98/47
f 93/99/48 94/102/48 92/100/48
f 95/101/49 96/104/49 94/102/49
f 97/103/50 98/106/50 96/104/50
f 99/105/51 100/108/51 98/106/51
f 101/107/52 102/110/52 100/108/52
f 103/109/53 104/112/53 102/110/53
f 105/111/54 106/114/54 104/112/54
f 107/113/55 108/116/55 106/114/55
f 109/115/56 110/118/56 108/116/56
f 111/117/57 112/120/57 110/118/57
f 113/119/58 114/122/58 112/120/58
f 115/121/59 116/124/59 114/122/59
f 117/123/60 118/126/60 116/124/60
f 119/125/61 120/128/61 118/126/61
f 121/127/62 122/130/62 120/128/62
f 123/129/13 124/132/13 122/130/13
f 125/131/63 126/137/63 124/132/63
f 66/202/34 68/203/34 128/204/34
f 68/203/34 70/205/34 128/204/34
f 70/205/34 72/206/34 78/207/34
f 72/206/34 74/208/34 76/209/34
f 78/207/34 72/206/34 76/209/34
f 78/207/34 80/210/34 86/135/34
f 80/210/34 82/211/34 84/212/34
f 86/135/34 80/210/34 84/212/34
f 86/135/34 88/213/34 92/214/34
f 88/213/34 90/215/34 92/214/34
f 92/214/34 94/216/34 86/135/34
f 94/216/34 96/217/34 102/218/34
f 96/217/34 98/219/34 100/220/34
f 102/218/34 96/217/34 100/220/34
f 102/218/34 104/221/34 108/222/34
f 104/221/34 106/223/34 108/222/34
f 108/222/34 110/224/34 102/218/34
f 110/224/34 112/225/34 118/133/34
f 112/225/34 114/226/34 116/227/34
f 118/133/34 112/225/34 116/227/34
f 118/133/34 120/228/34 122/229/34
f 122/229/34 124/230/34 126/134/34
f 126/134/34 128/204/34 70/205/34
f 70/205/34 78/207/34 86/135/34
f 118/133/34 94/216/34 102/218/34
f 86/135/34 94/216/34 118/133/34
f 102/218/34 110/224/34 118/133/34
f 118/133/34 122/229/34 126/134/34
f 86/135/34 126/134/34 70/205/34
f 127/136/64 128/139/64 126/137/64
f 65/138/65 66/231/65 128/139/65
f 67/232/31 65/233/31 127/234/31
f 127/234/31 125/235/31 67/232/31
f 125/235/31 123/236/31 117/237/31
f 67/232/31 125/235/31 69/141/31
f 123/236/31 121/238/31 119/239/31
f 119/239/31 117/237/31 123/236/31
f 117/237/31 115/240/31 109/142/31
f 115/240/31 113/241/31 111/242/31
f 111/242/31 109/142/31 115/240/31
f 109/142/31 107/243/31 101/244/31
f 107/243/31 105/245/31 103/246/31
f 103/246/31 101/244/31 107/243/31
f 101/244/31 99/247/31 93/248/31
f 99/247/31 97/249/31 95/250/31
f 95/250/31 93/248/31 99/247/31
f 93/248/31 91/251/31 85/252/31
f 91/251/31 89/253/31 87/254/31
f 87/254/31 85/252/31 91/251/31
f 85/252/31 83/255/31 77/140/31
f 83/255/31 81/256/31 79/257/31
f 79/257/31 77/140/31 83/255/31
f 77/140/31 75/258/31 69/141/31
f 75/258/31 73/259/31 71/260/31
f 71/260/31 69/141/31 75/258/31
f 125/235/31 117/237/31 109/142/31
f 77/140/31 101/244/31 93/248/31
f 109/142/31 101/244/31 77/140/31
f 93/248/31 85/252/31 77/140/31
f 109/142/31 69/141/31 125/235/31
